<svg xmlns="http://www.w3.org/2000/svg" width="43" height="43" viewBox="0 0 43 43" fill="none">
  <path d="M21.8862 19.519C21.9374 19.629 22.027 19.7167 22.1381 19.7656L35.9132 25.8291L36.3158 24.9131L22.5416 18.8492C22.4484 18.8079 22.3448 18.796 22.2447 18.8152C22.1445 18.8343 22.0527 18.8837 21.9814 18.9565C21.9101 19.0294 21.8627 19.1223 21.8457 19.2229C21.8287 19.3234 21.8429 19.4267 21.8862 19.519Z" fill="#0099CC"/>
  <path d="M4.30562 22.7572C6.90134 28.3238 12.8298 29.6087 17.0623 27.6351C18.2822 27.0662 19.4901 26.1476 20.1617 25.3093L24.122 28.452C24.1947 28.5097 24.282 28.5459 24.3742 28.5567C24.4663 28.5675 24.5597 28.5525 24.6437 28.5133L28.269 26.8228L29.5368 29.5417L29.59 29.6416C29.9123 30.2262 30.1885 30.3169 30.8658 30.0254L34.491 28.3349L35.7588 31.0539C35.8134 31.1708 35.8383 31.2574 35.8555 31.3155C35.8894 31.4332 35.9532 31.6529 36.1955 31.7561C36.444 31.8631 36.6469 31.7586 36.8257 31.6664C36.8901 31.6342 36.9745 31.5904 37.0878 31.5376L41.1942 29.6227C41.5472 29.4578 41.8202 29.1596 41.9534 28.7936C42.0867 28.4276 42.0692 28.0236 41.9048 27.6705L40.2671 24.1585C40.1159 23.8359 39.8534 23.5787 39.5277 23.4342L23.4777 16.3681C23.3213 15.725 23.0599 14.7645 22.7712 14.1455C20.3974 9.05476 14.3242 6.8443 9.23345 9.21815C4.14271 11.592 1.93135 17.6656 4.30562 22.7572ZM21.8653 14.569C22.0771 15.0231 22.3309 15.8514 22.5629 16.8411C22.5802 16.9167 22.6149 16.9872 22.6644 17.0469C22.7139 17.1066 22.7768 17.1539 22.8479 17.1849L39.1225 24.3492C39.2273 24.3952 39.312 24.4776 39.3608 24.5812L40.9985 28.0931C41.1079 28.3278 41.0064 28.6069 40.7716 28.7164L36.6651 30.6312L35.186 27.4592C35.1299 27.339 35.0285 27.246 34.9038 27.2006C34.7792 27.1553 34.6417 27.1613 34.5215 27.2173L30.4431 29.1191L28.964 25.947C28.9079 25.8268 28.8064 25.7339 28.6818 25.6885C28.5572 25.6431 28.4197 25.6491 28.2995 25.7052L24.5012 27.4764L20.364 24.1932C20.3073 24.1481 20.2414 24.1159 20.1709 24.0988C20.1005 24.0817 20.0272 24.0801 19.9561 24.0942C19.8849 24.1083 19.8177 24.1376 19.7591 24.1802C19.7005 24.2228 19.6518 24.2777 19.6164 24.341C19.2523 24.9963 18.0834 26.0555 16.6397 26.7288C12.8531 28.4945 7.54309 27.3338 5.21193 22.3346C3.07094 17.7433 5.06471 12.2654 9.65606 10.1245C14.2474 7.98347 19.7243 9.97766 21.8653 14.569Z" fill="#0099CC"/>
  <path d="M8.12378 19.1143C8.93943 20.8635 11.0258 21.6229 12.775 20.8072C14.5242 19.9916 15.2836 17.9052 14.4679 16.156C13.6523 14.4068 11.5659 13.6474 9.81669 14.4631C8.06752 15.2787 7.30813 17.3651 8.12378 19.1143ZM13.5616 16.5786C14.144 17.8275 13.6013 19.3185 12.3524 19.9009C11.1035 20.4833 9.61245 19.9406 9.03009 18.6917C8.44772 17.4428 8.99042 15.9517 10.2393 15.3694C11.4882 14.787 12.9793 15.3297 13.5616 16.5786Z" fill="#0099CC"/>
</svg>